<svg xmlns="http://www.w3.org/2000/svg" viewBox="0 0 25 24" width="25" height="24">
	<style>
		tspan { white-space:pre }
		.shp0 { fill: #ffffff } 
	</style>
	<g id="footer">
		<g id="social icons">
			<g id="icon_google@">
				<path id="logo" class="shp0" d="M19.74 5.5L17.38 5.5L17.38 7.83L16.19 7.83L16.19 5.5L13.83 5.5L13.83 4.33L16.19 4.33L16.19 2L17.38 2L17.38 4.33L19.74 4.33L19.74 5.5ZM11.32 3.09C11.45 3.17 11.59 3.28 11.75 3.43C11.9 3.58 12.05 3.76 12.2 3.98C12.34 4.19 12.46 4.44 12.57 4.72C12.66 5 12.71 5.34 12.71 5.71C12.69 6.41 12.53 6.96 12.22 7.38C12.07 7.58 11.91 7.77 11.74 7.94C11.56 8.11 11.36 8.28 11.15 8.46C11.03 8.58 10.91 8.71 10.81 8.86C10.69 9.02 10.63 9.21 10.63 9.41C10.63 9.62 10.69 9.78 10.82 9.91C10.92 10.04 11.02 10.15 11.12 10.25L11.81 10.79C12.24 11.12 12.61 11.49 12.93 11.89C13.24 12.3 13.4 12.84 13.41 13.5C13.41 14.44 12.98 15.27 12.11 16C11.21 16.75 9.91 17.14 8.21 17.16C6.79 17.15 5.73 16.86 5.03 16.29C4.32 15.77 3.97 15.13 3.97 14.4C3.97 14.04 4.08 13.64 4.31 13.2C4.54 12.76 4.94 12.37 5.53 12.04C6.18 11.68 6.87 11.44 7.6 11.32C8.31 11.22 8.91 11.16 9.38 11.15C9.23 10.96 9.1 10.77 8.99 10.56C8.86 10.35 8.79 10.11 8.79 9.82C8.79 9.65 8.81 9.51 8.87 9.4C8.91 9.28 8.95 9.16 8.99 9.06C8.76 9.09 8.54 9.1 8.34 9.1C7.26 9.09 6.44 8.76 5.87 8.13C5.28 7.53 4.98 6.84 4.98 6.06C4.98 5.1 5.4 4.24 6.24 3.46C6.82 3.01 7.42 2.71 8.04 2.57C8.65 2.45 9.23 2.39 9.77 2.39L13.82 2.39L12.57 3.09L11.32 3.09ZM8.68 11.71C8.26 11.77 7.83 11.86 7.4 11.99C7.29 12.03 7.15 12.08 6.96 12.16C6.77 12.24 6.58 12.36 6.39 12.51C6.2 12.67 6.04 12.86 5.91 13.1C5.77 13.34 5.69 13.64 5.69 13.98C5.69 14.67 6.01 15.23 6.66 15.67C7.27 16.11 8.11 16.34 9.18 16.35C10.13 16.34 10.86 16.14 11.37 15.75C11.86 15.36 12.1 14.86 12.1 14.26C12.1 13.77 11.94 13.34 11.6 12.97C11.24 12.63 10.69 12.2 9.93 11.7C9.8 11.68 9.65 11.68 9.48 11.68C9.37 11.66 9.11 11.68 8.68 11.71ZM10.37 4.3C10.18 3.92 9.93 3.62 9.61 3.39C9.29 3.17 8.93 3.05 8.51 3.04C7.96 3.05 7.51 3.26 7.14 3.67C6.83 4.1 6.69 4.58 6.7 5.11C6.7 5.81 6.91 6.54 7.34 7.3C7.55 7.66 7.82 7.96 8.15 8.2C8.48 8.45 8.85 8.57 9.28 8.57C9.81 8.55 10.25 8.37 10.61 8.02C10.78 7.78 10.89 7.53 10.94 7.27C10.97 7.01 10.99 6.79 10.99 6.61C10.99 5.85 10.78 5.07 10.37 4.3Z" />
			</g>
		</g>
	</g>
</svg>