<svg version="1.1" xmlns="http://www.w3.org/2000/svg" xmlns:xlink="http://www.w3.org/1999/xlink" width="1692" height="24"><defs/><g><path fill="rgb(225,225,225)" stroke="none" paint-order="stroke fill markers" fill-rule="evenodd" d=" M 409601.99994659424 1.0006468892097473 C 409601.99994659424 1.0006468892097473 821.0449180603027 1.0006468892097473 821.0449180603027 1.0006468892097473 C 821.0449180603027 1.0006468892097473 846.0398635864258 21.00092786550522 846.0398635864258 21.00092786550522 C 846.0398635864258 21.00092786550522 871.0144004821777 1.0006468892097473 871.0144004821777 1.0006468892097473 C 871.0144004821777 1.0006468892097473 1690.0000534057617 1.0006468892097473 1690.0000534057617 1.0006468892097473 C 1690.0000534057617 1.0006468892097473 1690.0000534057617 2.000920593738556 1690.0000534057617 2.000920593738556 C 1690.0000534057617 2.000920593738556 871 2.000920593738556 871 2.000920593738556 C 871 2.000920593738556 846.0323295593262 22.001001834869385 846.0323295593262 22.001001834869385 C 846.0323295593262 22.001001834869385 821 2.000920593738556 821 2.000920593738556 C 821 2.000920593738556 409601.99994659424 2.000920593738556 409601.99994659424 2.000920593738556 C 409601.99994659424 2.000920593738556 409601.99994659424 1.0006468892097473 409601.99994659424 1.0006468892097473 Z"/></g></svg>