<svg xmlns="http://www.w3.org/2000/svg" viewBox="0 0 23 23" width="23" height="23">
	<style>
		tspan { white-space:pre }
		.shp0 { fill: #ffffff } 
	</style>
	<g id="footer">
		<g id="social icons">
			<g id="icon_linkedin@">
				<path id="Logo" class="shp0" d="M14.54 16.24L14.54 11.6C14.54 10.43 14.26 9.63 13.2 9.63C12.4 9.63 11.85 10.17 11.64 10.69C11.56 10.88 11.54 11.13 11.54 11.39L11.54 16.24L8.51 16.24C8.51 16.24 8.55 7.97 8.51 7.16L11.54 7.16L11.54 8.79C11.54 8.8 11.53 8.81 11.52 8.82L11.54 8.82L11.54 8.79C11.93 8.2 12.93 7.14 14.48 7.14C16.39 7.14 17.6 8.6 17.6 11.26L17.6 16.24L14.54 16.24ZM3.96 7.16L7.01 7.16L7.01 16.24L3.96 16.24L3.96 7.16ZM5.5 5.65C4.66 5.65 3.99 4.97 3.99 4.14C3.99 3.3 4.66 2.63 5.5 2.63C6.33 2.63 7.01 3.3 7.01 4.14C7.01 4.97 6.33 5.65 5.5 5.65Z" />
			</g>
		</g>
	</g>
</svg>