<svg xmlns="http://www.w3.org/2000/svg" viewBox="0 0 125 30" width="125" height="30">
	<defs>
		<linearGradient id="grd1" gradientUnits="userSpaceOnUse"  x1="124" y1="27.952" x2="111.994" y2="19.545">
			<stop offset="0" stop-color="#00abff"  />
			<stop offset="1" stop-color="#80d5ff"  />
		</linearGradient>
	</defs>
	<style>
		tspan { white-space:pre }
		.shp0 { fill: #ffffff } 
		.shp1 { fill: url(#grd1) } 
	</style>
	<path id="logo" class="shp0" d="M31.26 23.81L36.41 23.81L36.5 8.09L31.26 8.11L31.26 23.81ZM33.75 0.99C32.28 0.99 31.1 2.18 31.1 3.65C31.1 5.12 32.28 6.31 33.75 6.31C35.21 6.31 36.39 5.12 36.39 3.65C36.39 2.18 35.21 0.99 33.75 0.99M93.46 23.87L98.59 23.87L98.59 8.23L93.46 8.23L93.46 23.87ZM113.12 8.25L110.32 11.94L107.51 8.25L101.46 8.25L107.29 16.06L101.57 23.88L107.51 23.88L110.32 20.02L113.24 16.06L119.07 8.25L113.12 8.25ZM114.69 17.51L111.99 21.13L118.05 29.99L124 29.99L114.69 17.51ZM96.11 0.99C94.64 0.99 93.45 2.18 93.45 3.65C93.45 5.12 94.64 6.31 96.11 6.31C97.57 6.31 98.76 5.12 98.76 3.65C98.76 2.18 97.57 0.99 96.11 0.99M0 11.82L4.33 11.82L4.33 23.8L9.75 23.8L9.75 11.82L14.08 11.82L14.08 8L0 8L0 11.82ZM76.55 11.99L80.86 11.99L80.86 23.84L86.26 23.84L86.26 11.99L90.56 11.99L90.56 8.22L76.55 8.22L76.55 11.99ZM26.1 7.63C23.18 7.63 21.69 10.42 21.69 10.42L19.76 8.01L16.82 8.01L16.82 23.81L22.24 23.81L22.24 16.87C22.27 15.27 22.69 14.1 23.51 13.29C25.22 11.58 27.91 12.37 27.91 12.37L28.29 7.86C28.29 7.86 27.83 7.63 26.1 7.63ZM44.75 10.63L42.85 8.23L39.95 8.23L39.95 23.87L45.31 23.87L45.32 16.13C45.34 14.54 46.3 12.79 47.92 12.44C49.17 12.16 51.1 12.63 51.05 15.87L51.06 23.87L56.29 23.87C56.29 23.87 56.29 23.39 56.29 18.05L56.29 13.9C56.29 9.9 53.29 7.88 50.58 7.88C46.58 7.88 44.75 10.63 44.75 10.63ZM67.38 7.82C61.19 7.82 58.85 12.26 58.85 16.13C58.85 20.65 62.19 24.38 67.65 24.38C70.75 24.38 72.58 23.42 74.23 22.65L73.72 19.63C73.72 19.63 71.13 20.69 67.85 20.58C64.49 20.46 64.31 17.67 64.31 17.67L75.08 17.67C75.29 11.51 72.64 7.82 67.38 7.82ZM64.26 14.6C64.26 14.52 64.26 14.68 64.26 14.6C64.25 13.12 65.13 11.29 67.48 11.35C69.38 11.39 70.32 13.06 70.29 14.6C70.3 14.68 70.29 14.52 70.29 14.6L64.26 14.6Z" />
	<path id="corner" class="shp1" d="M114.69 17.51L111.99 21.13L118.05 29.99L124 29.99L114.69 17.51Z" />
</svg>