<svg xmlns="http://www.w3.org/2000/svg" viewBox="0 0 25 20" width="25" height="20">
	<style>
		tspan { white-space:pre }
		.shp0 { fill: #ffffff } 
	</style>
	<g id="footer">
		<g id="social icons">
			<g id="icon_twitter@">
				<path id="logo" class="shp0" d="M21.32 3.66C20.68 3.94 19.99 4.13 19.26 4.22C20 3.78 20.57 3.09 20.84 2.26C20.14 2.67 19.38 2.96 18.56 3.12C17.9 2.43 16.97 2.01 15.93 2.01C13.95 2.01 12.34 3.59 12.34 5.54C12.34 5.81 12.37 6.08 12.43 6.34C9.45 6.19 6.8 4.79 5.03 2.65C4.72 3.17 4.54 3.78 4.54 4.43C4.54 5.65 5.18 6.73 6.14 7.37C5.55 7.35 5 7.19 4.51 6.93C4.51 6.94 4.51 6.96 4.51 6.97C4.51 8.68 5.75 10.11 7.4 10.43C7.09 10.51 6.78 10.56 6.45 10.56C6.22 10.56 5.99 10.53 5.77 10.49C6.23 11.9 7.56 12.92 9.13 12.95C7.9 13.89 6.35 14.46 4.67 14.46C4.38 14.46 4.09 14.44 3.81 14.41C5.4 15.41 7.29 16 9.32 16C15.93 16 19.54 10.61 19.54 5.95C19.54 5.79 19.54 5.64 19.53 5.49C20.23 4.99 20.84 4.37 21.32 3.66Z" />
			</g>
		</g>
	</g>
</svg>